<?xml version="1.0" encoding="UTF-8"?>
<svg version="1.1" xmlns="http://www.w3.org/2000/svg" width="50" height="50">
<path d="M0 0 C3.39488422 2.05107588 4.80323081 3.70484621 7 7 C7.78375 6.030625 8.5675 5.06125 9.375 4.0625 C11.48204101 1.45642296 12.71687493 0.14077451 16.171875 -0.23828125 C21.97794679 -0.40542574 25.48854613 -0.06030848 30 4 C32.73957509 8.440001 32.65531007 12.93333432 32 18 C29.9304868 22.13902639 28.25032488 24.27523048 24 26 C19.5474185 26.78753142 15.58836542 26.8784529 11.5703125 24.65625 C9.61825996 23.18352709 7.78232513 21.67279677 6 20 C5.38125 20.804375 4.7625 21.60875 4.125 22.4375 C1.91264081 25.1053449 1.19589948 25.8687952 -2.171875 26.23828125 C-7.97794679 26.40542574 -11.48854613 26.06030848 -16 22 C-18.73957509 17.559999 -18.65531007 13.06666568 -18 8 C-14.00525605 0.0105121 -8.41955849 -1.13261484 0 0 Z M10 11 C10 15.03223106 11.64129026 16.80880447 14 20 C17.09173752 21.54586876 19.59429552 21.29359521 23 21 C25.60314994 19.6469872 25.60314994 19.6469872 27 17 C27.55307474 14.2175209 27.56538516 11.7812381 27 9 C25.10288389 6.25972117 23.6402753 5.28643895 20.625 3.9375 C15.88400691 4.05038079 13.18815095 7.81184905 10 11 Z M-11.375 6.6875 C-13.21921807 9.31196417 -13.92169023 10.78929947 -14 14 C-12.6671984 17.1098704 -11.27831066 18.7668208 -8.6875 20.9375 C-5.97850387 22.26264493 -5.97850387 22.26264493 -2.8125 21.5625 C0.27927996 20.22873466 0.27927996 20.22873466 1.25 16.9375 C1.62125 15.4834375 1.62125 15.4834375 2 14 C2.66 13.67 3.32 13.34 4 13 C1.27809315 8.77895001 1.27809315 8.77895001 -2 5 C-5.90413297 4.56620745 -8.11901478 4.37403681 -11.375 6.6875 Z M8 9 C9 11 9 11 9 11 Z M5 16 C6 18 6 18 6 18 Z " fill="#FAB004" transform="translate(18,12)"/>
</svg>
