<?xml version="1.0" encoding="UTF-8"?>
<svg version="1.1" xmlns="http://www.w3.org/2000/svg" width="50" height="50">
<path d="M0 0 C1 1 1 1 1.09765625 4.37890625 C1.09098369 5.77347077 1.07902532 7.16801743 1.0625 8.5625 C1.05798828 9.27341797 1.05347656 9.98433594 1.04882812 10.71679688 C1.03700864 12.47790013 1.01907263 14.23896036 1 16 C-0.32 16 -1.64 16 -3 16 C-3 14.35 -3 12.7 -3 11 C-5.97 10.67 -8.94 10.34 -12 10 C-12 11.32 -12 12.64 -12 14 C-8.535 13.505 -8.535 13.505 -5 13 C-5 14.65 -5 16.3 -5 18 C-3.02 18 -1.04 18 1 18 C1 20.64 1 23.28 1 26 C-1.64 26 -4.28 26 -7 26 C-6.979375 27.0725 -6.95875 28.145 -6.9375 29.25 C-6.9857984 32.14790424 -7.13155885 34.28612141 -8 37 C-6.68 37 -5.36 37 -4 37 C-4.33 34.03 -4.66 31.06 -5 28 C-3.02 28 -1.04 28 1 28 C1.02684312 30.81256281 1.04676188 33.62487241 1.0625 36.4375 C1.07087891 37.23994141 1.07925781 38.04238281 1.08789062 38.86914062 C1.0965143 40.91295221 1.0522815 42.95683902 1 45 C0 46 0 46 -3.5625 46.0625 C-4.696875 46.041875 -5.83125 46.02125 -7 46 C-7.3403125 45.0409375 -7.3403125 45.0409375 -7.6875 44.0625 C-8.120625 43.381875 -8.55375 42.70125 -9 42 C-9.804375 41.9175 -10.60875 41.835 -11.4375 41.75 C-12.283125 41.5025 -13.12875 41.255 -14 41 C-15.0395951 39.01331613 -15.68868355 37.05849918 -16.32421875 34.91015625 C-16.91843885 32.79437445 -16.91843885 32.79437445 -19 31 C-19.26991906 28.31160615 -19.08737357 25.70858064 -19 23 C-11.57142857 22.85714286 -11.57142857 22.85714286 -8 24 C-8 22.68 -8 21.36 -8 20 C-8.7734375 20.2475 -8.7734375 20.2475 -9.5625 20.5 C-12.73363876 21.15049 -15.77218334 21.0620734 -19 21 C-19.46459606 12.13826035 -19.46459606 12.13826035 -17.75 7.9375 C-15.76117928 5.73559134 -14.79710632 5.63160465 -12 5 C-10.8499169 3.03327085 -10.8499169 3.03327085 -10 1 C-6.74696956 -0.62651522 -3.60774398 -0.11453156 0 0 Z " fill="#F9B004" transform="translate(23,2)"/>
<path d="M0 0 C2.90426322 0.0312847 4.07848385 0.19004112 6.6875 1.625 C8.1875 3.25 8.1875 3.25 8.1875 5.25 C8.97125 5.4975 9.755 5.745 10.5625 6 C13.6376499 7.4643571 13.99308211 8.15427081 15.1875 11.25 C15.59684374 14.61571519 15.51198072 17.98685372 15.5 21.375 C15.51611328 22.29410156 15.53222656 23.21320312 15.54882812 24.16015625 C15.54979492 25.47693359 15.54979492 25.47693359 15.55078125 26.8203125 C15.55376221 27.62227051 15.55674316 28.42422852 15.55981445 29.25048828 C15.43695068 29.91032715 15.31408691 30.57016602 15.1875 31.25 C14.1975 31.91 13.2075 32.57 12.1875 33.25 C12.1875 31.27 12.1875 29.29 12.1875 27.25 C9.2175 27.25 6.2475 27.25 3.1875 27.25 C3.5175 24.61 3.8475 21.97 4.1875 19.25 C2.8675 19.25 1.5475 19.25 0.1875 19.25 C0.5175 22.55 0.8475 25.85 1.1875 29.25 C4.1575 29.25 7.1275 29.25 10.1875 29.25 C11.16974245 33.17896979 11.4856102 36.22551231 11.1875 40.25 C8.1875 42.25 8.1875 42.25 5.1875 42.25 C4.5275 43.57 3.8675 44.89 3.1875 46.25 C0.85455225 46.29241723 -1.47952567 46.29092937 -3.8125 46.25 C-4.8125 45.25 -4.8125 45.25 -4.91015625 43.18359375 C-4.87760417 40.87239583 -4.84505208 38.56119792 -4.8125 36.25 C-1.8425 36.58 1.1275 36.91 4.1875 37.25 C4.1875 35.93 4.1875 34.61 4.1875 33.25 C-0.2675 33.745 -0.2675 33.745 -4.8125 34.25 C-4.8125 27.32 -4.8125 20.39 -4.8125 13.25 C4.1875 13.25 4.1875 13.25 8.1875 14.25 C8.1875 12.93 8.1875 11.61 8.1875 10.25 C7.62546875 10.41371094 7.0634375 10.57742188 6.484375 10.74609375 C4.05690944 11.27864997 1.91860319 11.34898681 -0.5625 11.3125 C-1.36171875 11.30347656 -2.1609375 11.29445313 -2.984375 11.28515625 C-3.58765625 11.27355469 -4.1909375 11.26195312 -4.8125 11.25 C-4.83938151 9.60425434 -4.85884123 7.95838587 -4.875 6.3125 C-4.88660156 5.39597656 -4.89820312 4.47945313 -4.91015625 3.53515625 C-4.74493894 -0.33092873 -4.06478277 0.26654313 0 0 Z " fill="#FAAF04" transform="translate(30.8125,1.75)"/>
<path d="M0 0 C0.66 0 1.32 0 2 0 C2 0.66 2 1.32 2 2 C1.34 2 0.68 2 0 2 C0 1.34 0 0.68 0 0 Z " fill="#F9B005" transform="translate(32,36)"/>
<path d="M0 0 C0.66 0 1.32 0 2 0 C2 0.66 2 1.32 2 2 C1.34 2 0.68 2 0 2 C0 1.34 0 0.68 0 0 Z " fill="#F9B005" transform="translate(16,36)"/>
<path d="M0 0 C0.66 0 1.32 0 2 0 C2 0.66 2 1.32 2 2 C1.34 2 0.68 2 0 2 C0 1.34 0 0.68 0 0 Z " fill="#F9B005" transform="translate(12,23)"/>
<path d="M0 0 C0.66 0 1.32 0 2 0 C2 0.66 2 1.32 2 2 C1.34 2 0.68 2 0 2 C0 1.34 0 0.68 0 0 Z " fill="#F9B005" transform="translate(32,22)"/>
<path d="M0 0 C0.66 0 1.32 0 2 0 C2 0.66 2 1.32 2 2 C1.34 2 0.68 2 0 2 C0 1.34 0 0.68 0 0 Z " fill="#F9B005" transform="translate(36,13)"/>
<path d="M0 0 C0.66 0 1.32 0 2 0 C2 0.66 2 1.32 2 2 C1.34 2 0.68 2 0 2 C0 1.34 0 0.68 0 0 Z " fill="#F9B005" transform="translate(12,13)"/>
</svg>
